{"glyphs":{"0":{"ha":971,"x_min":0,"x_max":836,"o":"m 141 711 l 141 157 l 694 157 l 694 711 l 141 711 m 836 852 l 836 16 l 0 16 l 0 852 l 836 852 z "},"1":{"ha":271,"x_min":0,"x_max":136,"o":"m 136 814 l 136 0 l 0 0 l 0 814 l 136 814 z "},"2":{"ha":949,"x_min":0,"x_max":814,"o":"m 814 0 l 0 0 l 0 475 l 678 475 l 678 678 l 0 678 l 0 814 l 814 814 l 814 339 l 136 339 l 136 136 l 814 136 l 814 0 z "},"3":{"ha":949,"x_min":0,"x_max":814,"o":"m 0 0 l 0 136 l 678 136 l 678 339 l 0 339 l 0 475 l 678 475 l 678 678 l 0 678 l 0 814 l 814 814 l 814 0 l 0 0 z "},"4":{"ha":949,"x_min":0,"x_max":814,"o":"m 814 0 l 678 0 l 678 339 l 0 339 l 0 814 l 136 814 l 136 475 l 678 475 l 678 814 l 814 814 l 814 0 z "},"5":{"ha":949,"x_min":0,"x_max":814,"o":"m 814 814 l 814 678 l 136 678 l 136 475 l 814 475 l 814 0 l 0 0 l 0 136 l 678 136 l 678 339 l 0 339 l 0 814 l 814 814 z "},"6":{"ha":949,"x_min":0,"x_max":814,"o":"m 136 339 l 136 136 l 678 136 l 678 339 l 136 339 m 0 814 l 814 814 l 814 678 l 136 678 l 136 475 l 814 475 l 814 0 l 0 0 l 0 814 z "},"7":{"ha":949,"x_min":0,"x_max":814,"o":"m 678 678 l 0 678 l 0 814 l 814 814 l 814 0 l 678 0 l 678 678 z "},"8":{"ha":949,"x_min":0,"x_max":814,"o":"m 678 475 l 678 678 l 136 678 l 136 475 l 678 475 m 0 814 l 814 814 l 814 0 l 0 0 l 0 814 m 136 136 l 678 136 l 678 339 l 136 339 l 136 136 z "},"9":{"ha":949,"x_min":0,"x_max":814,"o":"m 678 475 l 678 678 l 136 678 l 136 475 l 678 475 m 814 0 l 0 0 l 0 136 l 678 136 l 678 339 l 0 339 l 0 814 l 814 814 l 814 0 z "}," ":{"ha":543,"x_min":0,"x_max":0,"o":""},"!":{"ha":271,"x_min":0,"x_max":136,"o":"m 136 814 l 136 339 l 0 339 l 0 814 l 136 814 m 136 136 l 136 0 l 0 0 l 0 136 l 136 136 z "},"\"":{"ha":475,"x_min":0,"x_max":339,"o":"m 136 678 l 0 678 l 0 814 l 136 814 l 136 678 m 339 678 l 203 678 l 203 814 l 339 814 l 339 678 z "},"#":{"ha":949,"x_min":0,"x_max":814,"o":"m 678 475 l 678 339 l 814 339 l 814 203 l 678 203 l 678 0 l 543 0 l 543 203 l 271 203 l 271 0 l 136 0 l 136 203 l 0 203 l 0 339 l 136 339 l 136 475 l 0 475 l 0 610 l 136 610 l 136 814 l 271 814 l 271 610 l 543 610 l 543 814 l 678 814 l 678 610 l 814 610 l 814 475 l 678 475 m 543 339 l 543 475 l 271 475 l 271 339 l 543 339 z "},"$":{"ha":949,"x_min":0,"x_max":814,"o":"m 339 814 l 339 949 l 475 949 l 475 814 l 814 814 l 814 678 l 136 678 l 136 475 l 814 475 l 814 0 l 475 0 l 475 -136 l 339 -136 l 339 0 l 0 0 l 0 136 l 678 136 l 678 339 l 0 339 l 0 814 l 339 814 z "},"%":{"ha":949,"x_min":0,"x_max":814,"o":"m 814 814 l 170 0 l 0 0 l 644 814 l 814 814 m 136 678 l 0 678 l 0 814 l 136 814 l 136 678 m 814 0 l 678 0 l 678 136 l 814 136 l 814 0 z "},"&":{"ha":1085,"x_min":0,"x_max":949,"o":"m 678 475 l 678 678 l 136 678 l 136 475 l 678 475 m 136 136 l 678 136 l 678 339 l 136 339 l 136 136 m 814 475 l 949 475 l 949 339 l 814 339 l 814 -136 l 678 -136 l 678 0 l 0 0 l 0 814 l 814 814 l 814 475 z "},"'":{"ha":271,"x_min":0,"x_max":136,"o":"m 136 678 l 0 678 l 0 814 l 136 814 l 136 678 z "},"(":{"ha":678,"x_min":0,"x_max":543,"o":"m 543 949 l 543 814 l 136 814 l 136 0 l 543 0 l 543 -136 l 0 -136 l 0 949 l 543 949 z "},")":{"ha":678,"x_min":0,"x_max":543,"o":"m 0 949 l 543 949 l 543 -136 l 0 -136 l 0 0 l 407 0 l 407 814 l 0 814 l 0 949 z "},"*":{"ha":610,"x_min":0,"x_max":475,"o":"m 271 495 l 271 339 l 203 339 l 203 495 l 94 385 l 46 433 l 156 543 l 0 543 l 0 610 l 156 610 l 46 720 l 94 768 l 203 658 l 203 814 l 271 814 l 271 658 l 381 768 l 429 720 l 319 610 l 475 610 l 475 543 l 319 543 l 429 433 l 381 385 l 271 495 z "},"+":{"ha":949,"x_min":0,"x_max":814,"o":"m 475 339 l 475 0 l 339 0 l 339 339 l 0 339 l 0 475 l 339 475 l 339 814 l 475 814 l 475 475 l 814 475 l 814 339 l 475 339 z "},",":{"ha":271,"x_min":0,"x_max":136,"o":"m 136 -136 l 0 -136 l 0 136 l 136 136 l 136 -136 z "},"-":{"ha":949,"x_min":0,"x_max":814,"o":"m 814 339 l 0 339 l 0 475 l 814 475 l 814 339 z "},".":{"ha":271,"x_min":0,"x_max":136,"o":"m 136 0 l 0 0 l 0 136 l 136 136 l 136 0 z "},"/":{"ha":949,"x_min":0,"x_max":814,"o":"m 814 814 l 170 0 l 0 0 l 644 814 l 814 814 z "},":":{"ha":271,"x_min":0,"x_max":136,"o":"m 136 0 l 0 0 l 0 136 l 136 136 l 136 0 m 136 339 l 0 339 l 0 475 l 136 475 l 136 339 z "},";":{"ha":271,"x_min":0,"x_max":136,"o":"m 136 -136 l 0 -136 l 0 136 l 136 136 l 136 -136 m 136 339 l 0 339 l 0 475 l 136 475 l 136 339 z "},"<":{"ha":644,"x_min":0,"x_max":509,"o":"m 0 407 l 339 814 l 509 814 l 187 407 l 509 0 l 339 0 l 0 407 z "},"=":{"ha":949,"x_min":0,"x_max":814,"o":"m 814 475 l 0 475 l 0 610 l 814 610 l 814 475 m 814 203 l 0 203 l 0 339 l 814 339 l 814 203 z "},">":{"ha":644,"x_min":0,"x_max":509,"o":"m 509 407 l 170 0 l 0 0 l 321 407 l 0 814 l 170 814 l 509 407 z "},"?":{"ha":949,"x_min":0,"x_max":814,"o":"m 678 678 l 0 678 l 0 814 l 814 814 l 814 339 l 475 339 l 475 271 l 339 271 l 339 475 l 678 475 l 678 678 m 475 0 l 339 0 l 339 136 l 475 136 l 475 0 z "},"@":{"ha":949,"x_min":0,"x_max":814,"o":"m 136 136 l 814 136 l 814 0 l 0 0 l 0 814 l 814 814 l 814 339 l 271 339 l 271 475 l 678 475 l 678 678 l 136 678 l 136 136 z "},"A":{"ha":949,"x_min":0,"x_max":814,"o":"m 814 0 l 678 0 l 678 339 l 136 339 l 136 0 l 0 0 l 0 814 l 814 814 l 814 0 m 678 475 l 678 678 l 136 678 l 136 475 l 678 475 z "},"B":{"ha":949,"x_min":0,"x_max":814,"o":"m 678 475 l 678 678 l 136 678 l 136 475 l 678 475 m 0 814 l 814 814 l 814 0 l 0 0 l 0 814 m 136 136 l 678 136 l 678 339 l 136 339 l 136 136 z "},"C":{"ha":949,"x_min":0,"x_max":814,"o":"m 814 814 l 814 678 l 136 678 l 136 136 l 814 136 l 814 0 l 0 0 l 0 814 l 814 814 z "},"D":{"ha":949,"x_min":0,"x_max":814,"o":"m 271 814 l 814 814 l 814 0 l 0 0 l 0 814 l 136 814 l 136 136 l 678 136 l 678 678 l 271 678 l 271 814 z "},"E":{"ha":949,"x_min":0,"x_max":814,"o":"m 814 0 l 0 0 l 0 814 l 814 814 l 814 678 l 136 678 l 136 475 l 814 475 l 814 339 l 136 339 l 136 136 l 814 136 l 814 0 z "},"F":{"ha":949,"x_min":0,"x_max":814,"o":"m 814 814 l 814 678 l 136 678 l 136 475 l 814 475 l 814 339 l 136 339 l 136 0 l 0 0 l 0 814 l 814 814 z "},"G":{"ha":949,"x_min":0,"x_max":814,"o":"m 814 814 l 814 678 l 136 678 l 136 136 l 678 136 l 678 339 l 271 339 l 271 475 l 814 475 l 814 0 l 0 0 l 0 814 l 814 814 z "},"H":{"ha":949,"x_min":0,"x_max":814,"o":"m 814 0 l 678 0 l 678 339 l 136 339 l 136 0 l 0 0 l 0 814 l 136 814 l 136 475 l 678 475 l 678 814 l 814 814 l 814 0 z "},"I":{"ha":271,"x_min":0,"x_max":136,"o":"m 136 0 l 0 0 l 0 814 l 136 814 l 136 0 z "},"J":{"ha":949,"x_min":0,"x_max":814,"o":"m 678 136 l 678 814 l 814 814 l 814 0 l 0 0 l 0 475 l 136 475 l 136 136 l 678 136 z "},"K":{"ha":916,"x_min":0,"x_max":780,"o":"m 136 814 l 136 0 l 0 0 l 0 814 l 136 814 m 271 407 l 610 814 l 780 814 l 458 407 l 780 0 l 610 0 l 271 407 z "},"L":{"ha":949,"x_min":0,"x_max":814,"o":"m 814 136 l 814 0 l 0 0 l 0 814 l 136 814 l 136 136 l 814 136 z "},"M":{"ha":949,"x_min":0,"x_max":814,"o":"m 814 0 l 678 0 l 678 678 l 475 678 l 475 0 l 339 0 l 339 678 l 136 678 l 136 0 l 0 0 l 0 814 l 814 814 l 814 0 z "},"N":{"ha":949,"x_min":0,"x_max":814,"o":"m 136 643 l 136 0 l 0 0 l 0 814 l 170 814 l 678 171 l 678 814 l 814 814 l 814 0 l 644 0 l 136 643 z "},"O":{"ha":949,"x_min":0,"x_max":814,"o":"m 0 814 l 814 814 l 814 0 l 0 0 l 0 814 m 136 678 l 136 136 l 678 136 l 678 678 l 136 678 z "},"P":{"ha":949,"x_min":0,"x_max":814,"o":"m 136 678 l 136 0 l 0 0 l 0 814 l 814 814 l 814 339 l 271 339 l 271 475 l 678 475 l 678 678 l 136 678 z "},"Q":{"ha":949,"x_min":0,"x_max":814,"o":"m 136 678 l 136 136 l 678 136 l 678 678 l 136 678 m 532 0 l 0 0 l 0 814 l 814 814 l 814 0 l 707 0 l 814 -136 l 644 -136 l 532 0 z "},"R":{"ha":949,"x_min":0,"x_max":814,"o":"m 780 0 l 610 0 l 328 339 l 271 339 l 271 475 l 678 475 l 678 678 l 136 678 l 136 0 l 0 0 l 0 814 l 814 814 l 814 339 l 513 339 l 780 0 z "},"S":{"ha":949,"x_min":0,"x_max":814,"o":"m 814 814 l 814 678 l 136 678 l 136 475 l 814 475 l 814 0 l 0 0 l 0 136 l 678 136 l 678 339 l 0 339 l 0 814 l 814 814 z "},"T":{"ha":949,"x_min":0,"x_max":814,"o":"m 475 678 l 475 0 l 339 0 l 339 678 l 0 678 l 0 814 l 814 814 l 814 678 l 475 678 z "},"U":{"ha":949,"x_min":0,"x_max":814,"o":"m 678 136 l 678 814 l 814 814 l 814 0 l 0 0 l 0 814 l 136 814 l 136 136 l 678 136 z "},"V":{"ha":949,"x_min":0,"x_max":814,"o":"m 170 0 l 0 0 l 0 814 l 136 814 l 136 171 l 644 814 l 814 814 l 170 0 z "},"W":{"ha":949,"x_min":0,"x_max":814,"o":"m 678 136 l 678 814 l 814 814 l 814 0 l 0 0 l 0 814 l 136 814 l 136 136 l 339 136 l 339 814 l 475 814 l 475 136 l 678 136 z "},"X":{"ha":949,"x_min":0,"x_max":814,"o":"m 323 407 l 0 814 l 170 814 l 407 514 l 644 814 l 814 814 l 492 407 l 814 0 l 644 0 l 407 300 l 170 0 l 0 0 l 323 407 z "},"Y":{"ha":949,"x_min":0,"x_max":814,"o":"m 339 339 l 0 339 l 0 814 l 136 814 l 136 475 l 678 475 l 678 814 l 814 814 l 814 339 l 475 339 l 475 0 l 339 0 l 339 339 z "},"Z":{"ha":949,"x_min":0,"x_max":814,"o":"m 0 814 l 814 814 l 814 339 l 136 339 l 136 136 l 814 136 l 814 0 l 0 0 l 0 475 l 678 475 l 678 678 l 0 678 l 0 814 z "},"[":{"ha":543,"x_min":0,"x_max":407,"o":"m 0 949 l 407 949 l 407 814 l 136 814 l 136 0 l 407 0 l 407 -136 l 0 -136 l 0 949 z "},"\\":{"ha":949,"x_min":0,"x_max":814,"o":"m 0 814 l 170 814 l 814 0 l 644 0 l 0 814 z "},"]":{"ha":543,"x_min":0,"x_max":407,"o":"m 407 949 l 407 -136 l 0 -136 l 0 0 l 271 0 l 271 814 l 0 814 l 0 949 l 407 949 z "},"^":{"ha":543,"x_min":0,"x_max":407,"o":"m 271 1085 l 407 949 l 271 949 l 203 1017 l 136 949 l 0 949 l 136 1085 l 271 1085 z "},"_":{"ha":949,"x_min":0,"x_max":814,"o":"m 814 -203 l 0 -203 l 0 -68 l 814 -68 l 814 -203 z "},"`":{"ha":407,"x_min":0,"x_max":271,"o":"m 271 949 l 136 949 l 0 1085 l 136 1085 l 271 949 z "},"a":{"ha":949,"x_min":0,"x_max":814,"o":"m 543 814 l 543 678 l 136 678 l 136 136 l 678 136 l 678 814 l 814 814 l 814 0 l 0 0 l 0 814 l 543 814 z "},"b":{"ha":949,"x_min":0,"x_max":814,"o":"m 0 814 l 136 814 l 136 136 l 678 136 l 678 339 l 271 339 l 271 475 l 814 475 l 814 0 l 0 0 l 0 814 z "},"c":{"ha":949,"x_min":0,"x_max":814,"o":"m 814 814 l 814 678 l 136 678 l 136 136 l 814 136 l 814 0 l 0 0 l 0 814 l 814 814 z "},"d":{"ha":949,"x_min":0,"x_max":814,"o":"m 678 136 l 678 814 l 814 814 l 814 0 l 0 0 l 0 475 l 543 475 l 543 339 l 136 339 l 136 136 l 678 136 z "},"e":{"ha":949,"x_min":0,"x_max":814,"o":"m 136 136 l 814 136 l 814 0 l 0 0 l 0 814 l 814 814 l 814 339 l 271 339 l 271 475 l 678 475 l 678 678 l 136 678 l 136 136 z "},"f":{"ha":949,"x_min":0,"x_max":814,"o":"m 814 814 l 814 678 l 136 678 l 136 475 l 814 475 l 814 339 l 136 339 l 136 0 l 0 0 l 0 814 l 814 814 z "},"g":{"ha":949,"x_min":0,"x_max":814,"o":"m 0 0 l 0 136 l 678 136 l 678 678 l 136 678 l 136 475 l 543 475 l 543 339 l 0 339 l 0 814 l 814 814 l 814 0 l 0 0 z "},"h":{"ha":949,"x_min":0,"x_max":814,"o":"m 0 814 l 136 814 l 136 475 l 814 475 l 814 0 l 678 0 l 678 339 l 136 339 l 136 0 l 0 0 l 0 814 z "},"i":{"ha":271,"x_min":0,"x_max":136,"o":"m 136 0 l 0 0 l 0 475 l 136 475 l 136 0 m 136 678 l 0 678 l 0 814 l 136 814 l 136 678 z "},"j":{"ha":949,"x_min":0,"x_max":814,"o":"m 678 136 l 678 814 l 814 814 l 814 0 l 0 0 l 0 475 l 136 475 l 136 136 l 678 136 z "},"k":{"ha":916,"x_min":0,"x_max":780,"o":"m 136 814 l 136 0 l 0 0 l 0 814 l 136 814 m 271 407 l 610 814 l 780 814 l 458 407 l 780 0 l 610 0 l 271 407 z "},"l":{"ha":271,"x_min":0,"x_max":136,"o":"m 136 814 l 136 0 l 0 0 l 0 814 l 136 814 z "},"m":{"ha":949,"x_min":0,"x_max":814,"o":"m 814 0 l 678 0 l 678 678 l 475 678 l 475 0 l 339 0 l 339 678 l 136 678 l 136 0 l 0 0 l 0 814 l 814 814 l 814 0 z "},"n":{"ha":949,"x_min":0,"x_max":814,"o":"m 814 0 l 678 0 l 678 678 l 136 678 l 136 0 l 0 0 l 0 814 l 814 814 l 814 0 z "},"o":{"ha":949,"x_min":0,"x_max":814,"o":"m 0 814 l 814 814 l 814 0 l 0 0 l 0 814 m 136 678 l 136 136 l 678 136 l 678 678 l 136 678 z "},"p":{"ha":949,"x_min":0,"x_max":814,"o":"m 136 678 l 136 0 l 0 0 l 0 814 l 814 814 l 814 339 l 271 339 l 271 475 l 678 475 l 678 678 l 136 678 z "},"q":{"ha":949,"x_min":0,"x_max":814,"o":"m 814 0 l 678 0 l 678 678 l 136 678 l 136 475 l 543 475 l 543 339 l 0 339 l 0 814 l 814 814 l 814 0 z "},"r":{"ha":949,"x_min":0,"x_max":814,"o":"m 136 678 l 136 0 l 0 0 l 0 814 l 814 814 l 814 678 l 136 678 z "},"s":{"ha":949,"x_min":0,"x_max":814,"o":"m 814 814 l 814 678 l 136 678 l 136 475 l 814 475 l 814 0 l 0 0 l 0 136 l 678 136 l 678 339 l 0 339 l 0 814 l 814 814 z "},"t":{"ha":949,"x_min":0,"x_max":814,"o":"m 475 339 l 475 0 l 339 0 l 339 339 l 0 339 l 0 475 l 339 475 l 339 814 l 475 814 l 475 475 l 814 475 l 814 339 l 475 339 z "},"u":{"ha":949,"x_min":0,"x_max":814,"o":"m 678 136 l 678 814 l 814 814 l 814 0 l 0 0 l 0 814 l 136 814 l 136 136 l 678 136 z "},"v":{"ha":949,"x_min":0,"x_max":814,"o":"m 170 0 l 0 0 l 0 814 l 136 814 l 136 171 l 644 814 l 814 814 l 170 0 z "},"w":{"ha":949,"x_min":0,"x_max":814,"o":"m 678 136 l 678 814 l 814 814 l 814 0 l 0 0 l 0 814 l 136 814 l 136 136 l 339 136 l 339 814 l 475 814 l 475 136 l 678 136 z "},"x":{"ha":949,"x_min":0,"x_max":814,"o":"m 323 407 l 0 814 l 170 814 l 407 514 l 644 814 l 814 814 l 492 407 l 814 0 l 644 0 l 407 300 l 170 0 l 0 0 l 323 407 z "},"y":{"ha":949,"x_min":0,"x_max":814,"o":"m 0 0 l 0 136 l 678 136 l 678 339 l 0 339 l 0 814 l 136 814 l 136 475 l 678 475 l 678 814 l 814 814 l 814 0 l 0 0 z "},"z":{"ha":949,"x_min":0,"x_max":814,"o":"m 0 814 l 814 814 l 814 339 l 136 339 l 136 136 l 814 136 l 814 0 l 0 0 l 0 475 l 678 475 l 678 678 l 0 678 l 0 814 z "},"{":{"ha":949,"x_min":0,"x_max":814,"o":"m 0 814 l 814 814 l 814 0 l 0 0 l 0 814 z "},"|":{"ha":271,"x_min":0,"x_max":136,"o":"m 0 949 l 136 949 l 136 -136 l 0 -136 l 0 949 z "},"}":{"ha":949,"x_min":0,"x_max":814,"o":"m 0 814 l 814 814 l 814 0 l 0 0 l 0 814 z "},"~":{"ha":949,"x_min":0,"x_max":814,"o":"m 814 339 l 0 339 l 0 475 l 814 475 l 814 339 z "},"‘":{"ha":271,"x_min":0,"x_max":136,"o":"m 136 678 l 0 678 l 0 814 l 136 814 l 136 678 z "},"’":{"ha":271,"x_min":0,"x_max":136,"o":"m 136 678 l 0 678 l 0 814 l 136 814 l 136 678 z "},"“":{"ha":475,"x_min":0,"x_max":339,"o":"m 136 678 l 0 678 l 0 814 l 136 814 l 136 678 m 339 678 l 203 678 l 203 814 l 339 814 l 339 678 z "},"”":{"ha":475,"x_min":0,"x_max":339,"o":"m 136 678 l 0 678 l 0 814 l 136 814 l 136 678 m 339 678 l 203 678 l 203 814 l 339 814 l 339 678 z "},"£":{"ha":1085,"x_min":0,"x_max":949,"o":"m 136 339 l 0 339 l 0 475 l 136 475 l 136 814 l 949 814 l 949 543 l 814 543 l 814 678 l 271 678 l 271 475 l 814 475 l 814 339 l 271 339 l 271 136 l 949 136 l 949 0 l 136 0 l 136 339 z "},"¥":{"ha":949,"x_min":0,"x_max":814,"o":"m 339 271 l 339 339 l 0 339 l 0 814 l 136 814 l 136 475 l 678 475 l 678 814 l 814 814 l 814 339 l 475 339 l 475 271 l 814 271 l 814 136 l 475 136 l 475 0 l 339 0 l 339 136 l 0 136 l 0 271 l 339 271 z "},"€":{"ha":1085,"x_min":0,"x_max":949,"o":"m 271 136 l 949 136 l 949 0 l 136 0 l 136 339 l 0 339 l 0 475 l 136 475 l 136 814 l 949 814 l 949 678 l 271 678 l 271 475 l 949 475 l 949 339 l 271 339 l 271 136 z "},"¢":{"ha":949,"x_min":0,"x_max":814,"o":"m 339 814 l 339 949 l 475 949 l 475 814 l 814 814 l 814 678 l 136 678 l 136 136 l 814 136 l 814 0 l 475 0 l 475 -136 l 339 -136 l 339 0 l 0 0 l 0 814 l 339 814 z "},"÷":{"ha":971,"x_min":0,"x_max":836,"o":"m 0 505 l 836 505 l 836 363 l 0 363 l 0 505 m 347 16 l 347 157 l 488 157 l 488 16 l 347 16 m 347 711 l 347 852 l 488 852 l 488 711 l 347 711 z "},"™":{"ha":949,"x_min":0,"x_max":814,"o":"m 475 339 l 475 0 l 339 0 l 339 339 l 0 339 l 0 475 l 339 475 l 339 814 l 475 814 l 475 475 l 814 475 l 814 339 l 475 339 z "},"©":{"ha":949,"x_min":0,"x_max":814,"o":"m 814 814 l 814 678 l 136 678 l 136 136 l 814 136 l 814 0 l 0 0 l 0 814 l 814 814 z "},"®":{"ha":949,"x_min":0,"x_max":814,"o":"m 328 339 l 271 339 l 271 475 l 678 475 l 678 678 l 136 678 l 136 0 l 0 0 l 0 814 l 814 814 l 814 339 l 513 339 l 780 0 l 610 0 l 328 339 z "}}}
